<svg width="24" height="25" viewBox="0 0 24 25" fill="none" xmlns="http://www.w3.org/2000/svg">
<g clip-path="url(#clip0_4_93)">
<path d="M13 4.58105C14.1046 4.58105 15 3.68562 15 2.58105C15 1.47649 14.1046 0.581055 13 0.581055C11.8954 0.581055 11 1.47649 11 2.58105C11 3.68562 11.8954 4.58105 13 4.58105Z" fill="#FFCA00"/>
<path d="M13.978 10.8511C14.223 11.2191 14.589 11.4981 15.009 11.6381L17.684 12.5301L18.317 10.6341L15.642 9.74206L13.979 7.24706C13.7855 6.9582 13.5206 6.72429 13.21 6.56806L11.776 5.85106C11.3494 5.63778 10.8603 5.5849 10.398 5.70206L7.20498 6.49906C6.92472 6.56888 6.66289 6.69852 6.43746 6.87907C6.21203 7.05963 6.02833 7.28682 5.89898 7.54506L4.10498 11.1341L5.89398 12.0291L7.68798 8.44006L9.91098 7.88406L8.10698 16.2301L4.43298 18.7571L5.56598 20.4051L9.24098 17.8771C9.66198 17.5871 9.95398 17.1521 10.061 16.6521L10.578 14.2641L13.095 16.1521L14.02 20.7771L15.981 20.3841L15.056 15.7571C14.9589 15.2751 14.6876 14.8457 14.294 14.5511L12.123 12.9231L12.77 9.03806L13.978 10.8511Z" fill="#FFCA00"/>
</g>
<defs>
<clipPath id="clip0_4_93">
<rect width="24" height="24" fill="white" transform="translate(0 0.581055)"/>
</clipPath>
</defs>
</svg>
